<svg width="16" height="21" viewBox="0 0 16 21" fill="none" xmlns="http://www.w3.org/2000/svg">
<path d="M15.5828 10.3014L2.74229 1.07522C2.5941 0.968799 2.41963 0.904948 2.23776 0.890576C2.05589 0.876205 1.87355 0.911861 1.71049 0.993684C1.54743 1.07551 1.40986 1.20038 1.31267 1.35478C1.21549 1.50918 1.1624 1.68722 1.15914 1.86963L0.844101 19.8669C0.840785 20.0494 0.887479 20.2293 0.979123 20.3871C1.07077 20.545 1.20387 20.6747 1.36399 20.7623C1.52412 20.8499 1.70517 20.892 1.88752 20.8841C2.06987 20.8761 2.24657 20.8184 2.39846 20.7172L15.554 11.9461C15.688 11.856 15.7983 11.7349 15.8755 11.593C15.9527 11.4511 15.9945 11.2927 15.9973 11.1313C16.0001 10.9698 15.9639 10.81 15.8917 10.6655C15.8196 10.521 15.7136 10.3961 15.5828 10.3014Z" fill="black"/>
</svg>
