<svg width="162" height="162" viewBox="0 0 162 162" fill="none" xmlns="http://www.w3.org/2000/svg">
<g clip-path="url(#clip0_1496_2)">
<path d="M64.1105 39.1021C73.6955 26.2501 88.1067 22.4971 101.364 26.1083C115.674 30.0031 128.256 42.2948 132.434 59.4128C132.65 60.2903 132.839 61.1678 132.994 62.0453C126.962 59.8975 120.402 59.732 114.27 61.5728C105.582 55.1468 94.8229 54.0668 85.2582 57.5903C73.2769 62.0116 63.9215 73.2233 61.7547 87.3308C58.9872 105.394 69.9897 121.621 85.5484 135.418L88.1675 137.686C86.0547 137.834 83.9082 137.504 81.8562 137.065C80.8015 136.839 79.7527 136.587 78.7107 136.309L75.0859 135.296C42.8614 126.231 21.2884 112.049 15.0987 90.8543C10.1577 73.9388 14.9097 57.0031 25.3587 46.4731C35.0382 36.7193 49.3887 32.7638 64.1105 39.1021ZM75.0995 89.3761C77.9885 70.5301 99.7842 61.2421 110.976 77.4151C111.083 77.5654 111.245 77.6674 111.427 77.699C111.609 77.7306 111.796 77.6892 111.948 77.5838C127.992 66.2168 145.293 82.3966 141.56 101.094C139.4 111.935 129.342 120.939 111.387 128.094L108.451 129.242L106.676 129.971C105.144 130.571 103.524 131.051 102.059 130.794C100.601 130.538 99.2442 129.525 98.009 128.445L95.9165 126.555C80.3037 113.116 73.3647 100.723 75.0995 89.3761Z" fill="#F72121"/>
</g>
<defs>
<clipPath id="clip0_1496_2">
<rect width="162" height="162" fill="white"/>
</clipPath>
</defs>
</svg>
