<svg width="36" height="36" viewBox="0 0 36 36" fill="none" xmlns="http://www.w3.org/2000/svg">
<g clip-path="url(#clip0_1497_6)">
<path d="M36 27C36 28.0609 35.5786 29.0783 34.8284 29.8284C34.0783 30.5786 33.0609 31 32 31H4C2.93913 31 1.92172 30.5786 1.17157 29.8284C0.421427 29.0783 0 28.0609 0 27V9C0 7.93913 0.421427 6.92172 1.17157 6.17157C1.92172 5.42143 2.93913 5 4 5H32C33.0609 5 34.0783 5.42143 34.8284 6.17157C35.5786 6.92172 36 7.93913 36 9V27Z" fill="#CCD6DD"/>
<path d="M11.9491 17.6358L0.637148 28.9478C0.610148 28.9768 0.600148 29.0118 0.577148 29.0398C0.917148 29.6098 1.39115 30.0828 1.96115 30.4238C1.99015 30.4008 2.02415 30.3908 2.05115 30.3638L13.3651 19.0498C13.458 18.9569 13.5316 18.8465 13.5818 18.7251C13.632 18.6037 13.6578 18.4735 13.6577 18.3421C13.6576 18.2107 13.6316 18.0806 13.5813 17.9593C13.5309 17.8379 13.4571 17.7277 13.3641 17.6348C13.2712 17.542 13.1608 17.4684 13.0394 17.4182C12.918 17.368 12.7878 17.3422 12.6564 17.3423C12.525 17.3424 12.395 17.3684 12.2736 17.4187C12.1522 17.4691 12.042 17.5429 11.9491 17.6358ZM35.4231 29.0398C35.4021 29.0118 35.3901 28.9768 35.3631 28.9498L24.0511 17.6358C23.9583 17.5429 23.8481 17.4692 23.7267 17.4189C23.6054 17.3686 23.4754 17.3427 23.344 17.3426C23.2127 17.3426 23.0826 17.3684 22.9612 17.4186C22.8398 17.4689 22.7296 17.5425 22.6366 17.6353C22.5437 17.7282 22.47 17.8384 22.4197 17.9598C22.3694 18.0811 22.3435 18.2111 22.3434 18.3425C22.3434 18.4738 22.3692 18.6039 22.4194 18.7253C22.4697 18.8466 22.5433 18.9569 22.6361 19.0498L33.9492 30.3638C33.9752 30.3898 34.0112 30.4008 34.0392 30.4238C34.6085 30.085 35.0843 29.6092 35.4231 29.0398Z" fill="#99AAB5"/>
<path d="M32 5H4C2.93913 5 1.92172 5.42143 1.17157 6.17157C0.421427 6.92172 0 7.93913 0 9L0 10.03L14.527 24.526C15.4419 25.4355 16.6795 25.9459 17.9695 25.9459C19.2595 25.9459 20.4971 25.4355 21.412 24.526L36 10.009V9C36 7.93913 35.5786 6.92172 34.8284 6.17157C34.0783 5.42143 33.0609 5 32 5Z" fill="#99AAB5"/>
<path d="M32.0003 5H4.00027C3.24751 5.00168 2.51056 5.21616 1.87446 5.61869C1.23836 6.02123 0.729044 6.59542 0.405273 7.275L15.1713 22.042C15.5427 22.4135 15.9837 22.7081 16.469 22.9091C16.9543 23.1102 17.4745 23.2136 17.9998 23.2136C18.5251 23.2136 19.0452 23.1102 19.5306 22.9091C20.0159 22.7081 20.4568 22.4135 20.8283 22.042L35.5953 7.275C35.2716 6.59535 34.7623 6.02109 34.1262 5.61854C33.4901 5.21599 32.7531 5.00156 32.0003 5Z" fill="#E1E8ED"/>
<path d="M26.9999 16.78C27 16.1251 26.8711 15.4766 26.6206 14.8716C26.3701 14.2666 26.0028 13.7168 25.5398 13.2537C25.0768 12.7906 24.5271 12.4232 23.9221 12.1726C23.3171 11.922 22.6687 11.793 22.0139 11.793C21.2209 11.7931 20.4395 11.9825 19.7345 12.3455C19.0296 12.7085 18.4215 13.2346 17.9609 13.88C17.5004 13.2348 16.8927 12.7089 16.1881 12.3459C15.4835 11.9829 14.7024 11.7934 13.9099 11.793C12.5872 11.793 11.3188 12.3184 10.3835 13.2536C9.44827 14.1889 8.92285 15.4573 8.92285 16.78C8.92285 17.171 8.97285 17.549 9.05685 17.913C9.74985 22.215 14.5329 26.754 17.9609 28C21.3889 26.754 26.1729 22.215 26.8649 17.914C26.9499 17.549 26.9999 17.17 26.9999 16.78Z" fill="#DD2E44"/>
</g>
<defs>
<clipPath id="clip0_1497_6">
<rect width="36" height="36" fill="white"/>
</clipPath>
</defs>
</svg>
