<svg width="24" height="24" viewBox="0 0 24 24" fill="none" xmlns="http://www.w3.org/2000/svg">
<g clip-path="url(#clip0_1496_2)">
<path d="M9.49781 5.79294C10.9178 3.88894 13.0528 3.33293 15.0168 3.86794C17.1368 4.44494 19.0008 6.26594 19.6198 8.80194C19.6518 8.93194 19.6798 9.06194 19.7028 9.19194C18.8092 8.87374 17.8373 8.84922 16.9288 9.12193C15.6418 8.16993 14.0478 8.00993 12.6308 8.53193C10.8558 9.18693 9.46981 10.8479 9.14881 12.9379C8.73881 15.6139 10.3688 18.0179 12.6738 20.0619L13.0618 20.3979C12.7488 20.4199 12.4308 20.3709 12.1268 20.3059C11.9706 20.2725 11.8152 20.2352 11.6608 20.1939L11.1238 20.0439C6.34981 18.7009 3.15381 16.5999 2.23681 13.4599C1.50481 10.9539 2.20881 8.44494 3.75681 6.88494C5.19081 5.43994 7.31681 4.85394 9.49781 5.79294ZM11.1258 13.2409C11.5538 10.4489 14.7828 9.07294 16.4408 11.4689C16.4567 11.4912 16.4807 11.5063 16.5077 11.511C16.5346 11.5157 16.5623 11.5095 16.5848 11.4939C18.9618 9.80994 21.5248 12.2069 20.9718 14.9769C20.6518 16.5829 19.1618 17.9169 16.5018 18.9769L16.0668 19.1469L15.8038 19.2549C15.5768 19.3439 15.3368 19.4149 15.1198 19.3769C14.9038 19.3389 14.7028 19.1889 14.5198 19.0289L14.2098 18.7489C11.8968 16.7579 10.8688 14.9219 11.1258 13.2409Z" fill="#F72121"/>
</g>
<defs>
<clipPath id="clip0_1496_2">
<rect width="24" height="24" fill="white"/>
</clipPath>
</defs>
</svg>
