<svg width="95" height="103" viewBox="0 0 95 103" fill="none" xmlns="http://www.w3.org/2000/svg">
<path d="M31.7119 56.5013C32.2366 55.7168 32.7995 54.9587 33.3986 54.2295C32.0952 51.7716 31.4156 49.0312 31.4194 46.2491C28.2092 43.0647 26.3939 38.7366 26.372 34.215C26.3501 29.6934 28.1233 25.3479 31.3024 22.1325C31.3381 17.6537 33.1335 13.3684 36.3011 10.2018C39.4687 7.03509 43.7544 5.24092 48.2333 5.20651C49.8228 3.55743 51.7289 2.24626 53.8373 1.35161C55.9458 0.456956 58.2132 -0.00276159 60.5036 1.24801e-05C65.1008 1.24801e-05 69.2738 1.81839 72.3401 4.77751C74.5887 4.7666 76.8173 5.19974 78.8981 6.05209C80.9789 6.90443 82.8709 8.15921 84.4656 9.74444C86.0604 11.3297 87.3264 13.2142 88.1912 15.2898C89.056 17.3655 89.5025 19.5914 89.505 21.84C92.7723 25.0949 94.615 29.5131 94.6286 34.125C94.6286 38.7563 92.781 42.9634 89.7829 46.0346V46.3125C89.7832 48.5764 89.3329 50.8176 88.4585 52.9057C87.584 54.9938 86.3027 56.8871 84.6893 58.4751C83.0758 60.0631 81.1625 61.3142 79.0608 62.1554C76.959 62.9966 74.7109 63.4112 72.4474 63.375C69.3713 66.3878 65.1544 68.25 60.5036 68.25C55.8236 68.25 51.5824 66.3634 48.4965 63.3116C45.6345 63.3161 42.8176 62.5984 40.3065 61.2251C37.896 64.5186 36.6487 68.5198 36.7608 72.5996C36.8729 76.6794 38.338 80.6061 40.9256 83.7623L49.6519 94.4093C50.4716 95.4093 50.8605 96.6941 50.7329 97.9809C50.6054 99.2677 49.9719 100.451 48.9718 101.271C47.9717 102.091 46.687 102.479 45.4002 102.352C44.1134 102.224 42.93 101.591 42.1103 100.591L33.384 89.9438C31.3611 87.4806 29.7719 84.6914 28.6845 81.6953C26.116 83.1224 23.1978 83.7983 20.2634 83.6458C17.329 83.4932 14.4966 82.5183 12.09 80.8324C7.371 77.5223 3.33938 66.885 0 48.9158C15.3172 49.7786 25.3354 51.8651 30.0593 55.1704C30.6443 55.5848 31.2 56.0284 31.7167 56.5061L31.7119 56.5013ZM52.5038 53.5568L55.3605 56.3843C56.7255 57.7346 58.5439 58.5 60.5036 58.5C62.4536 58.5 64.2574 57.7493 65.6224 56.4086L68.5279 53.5616L72.5985 53.625C76.7618 53.625 80.0329 50.3539 80.0329 46.3125L79.9695 42.1346L82.8019 39.2291C84.1327 37.8641 84.8786 36.0653 84.8786 34.125C84.8786 32.1263 84.084 30.2738 82.6849 28.899L79.7306 26.0081L79.755 21.879C79.755 17.7986 76.4839 14.5226 72.4425 14.5226L68.4304 14.547L65.5785 11.7975C64.2191 10.4786 62.3977 9.7438 60.5036 9.75001C59.5214 9.74721 58.5489 9.94363 57.6448 10.3274C56.7407 10.7112 55.9238 11.2743 55.2435 11.9828L52.4014 14.9224L48.3064 14.9565C46.3872 14.9718 44.551 15.741 43.1939 17.0981C41.8368 18.4552 41.0677 20.2914 41.0524 22.2105L41.0231 26.169L38.2395 28.9868C36.8891 30.3518 36.1286 32.1653 36.1286 34.125C36.1286 36.1091 36.9086 37.9421 38.2883 39.3169L41.1743 42.1785V46.2443C41.1743 48.1837 41.9447 50.0436 43.316 51.415C44.6874 52.7863 46.5474 53.5568 48.4868 53.5568H52.5038ZM60.5036 43.875C57.9178 43.875 55.4378 42.8478 53.6093 41.0193C51.7809 39.1908 50.7536 36.7109 50.7536 34.125C50.7536 31.5392 51.7809 29.0592 53.6093 27.2307C55.4378 25.4022 57.9178 24.375 60.5036 24.375C63.0895 24.375 65.5694 25.4022 67.3979 27.2307C69.2264 29.0592 70.2536 31.5392 70.2536 34.125C70.2536 36.7109 69.2264 39.1908 67.3979 41.0193C65.5694 42.8478 63.0895 43.875 60.5036 43.875ZM17.6865 72.8423C18.9719 73.6682 20.5271 73.9646 22.0262 73.6694C23.5252 73.3741 24.8518 72.51 25.7279 71.2582C26.604 70.0065 26.9616 68.4642 26.7258 66.9546C26.4899 65.4451 25.6789 64.0854 24.4627 63.1605C22.7175 61.9369 18.6225 60.7669 12.4215 59.8748C14.469 67.509 16.4483 71.9794 17.6865 72.8423Z" fill="#EF0D0D"/>
</svg>
